IKResults
version=1
nRows=8
nColumns=40
inDegrees=yes

Units are S.I. units (second, meters, Newtons, ...)
Angles are in degrees.

endheader
time	pelvis_tilt	pelvis_list	pelvis_rotation	pelvis_tx	pelvis_ty	pelvis_tz	hip_flexion_r	hip_adduction_r	hip_rotation_r	knee_angle_r	knee_angle_r_beta	ankle_angle_r	subtalar_angle_r	mtp_angle_r	hip_flexion_l	hip_adduction_l	hip_rotation_l	knee_angle_l	knee_angle_l_beta	ankle_angle_l	subtalar_angle_l	mtp_angle_l	lumbar_extension	lumbar_bending	lumbar_rotation	arm_flex_r	arm_add_r	arm_rot_r	elbow_flex_r	pro_sup_r	wrist_flex_r	wrist_dev_r	arm_flex_l	arm_add_l	arm_rot_l	elbow_flex_l	pro_sup_l	wrist_flex_l	wrist_dev_l
      1.29000000	     15.93838144	     -6.15965507	      4.12453511	      0.62970785	      0.92338311	     -1.01859984	      7.35776137	      6.15145182	    -15.28701549	    -24.35279458	     -0.42503645	     -1.95675248	     -8.40158267	     -5.79422201	    -28.16452264	      6.87646475	      1.79831537	    -30.80063328	     -0.53757246	      7.74197722	     12.43390439	     -4.64901534	    -21.95734108	      9.41957130	     -9.53617354	    -10.12962873	    -10.43767124	     -7.17879520	     12.45559184	     89.95437384	      0.00000000	      0.00000000	     12.32330113	     10.21123798	     17.06040835	     52.90976256	     89.95437384	      0.00000000	      0.00000000
      1.30000000	     16.25100302	     -6.23301702	      4.08531875	      0.64141965	      0.92607088	     -1.01726184	      6.12191431	      6.58913497	    -14.69497078	    -24.11515523	     -0.42088886	     -1.59403540	     -9.00606050	     -5.37165013	    -27.63586880	      6.89450213	      1.40242241	    -33.13117909	     -0.57824816	      4.77103143	     13.47389596	     -4.21947918	    -22.30221007	      9.51339944	     -9.30141723	     -9.76184280	    -10.40275661	     -6.67199408	     12.17633739	     89.95437384	      0.00000000	      0.00000000	     11.90726750	      9.86079037	     16.92269755	     52.38882840	     89.95437384	      0.00000000	      0.00000000
      1.31000000	     16.48914469	     -6.10107483	      4.00649674	      0.65297242	      0.92874793	     -1.01578719	      4.90450191	      6.76686174	    -14.23522972	    -23.85500503	     -0.41634838	     -1.15164912	     -9.23061418	     -5.03763055	    -26.86646710	      6.78012475	      1.20834189	    -35.54279628	     -0.62033882	      1.89357869	     14.19726869	     -3.82409335	    -22.56655527	      9.34974393	     -9.14063721	     -9.40235555	    -10.31787188	     -6.39606939	     12.14525057	     89.95437384	      0.00000000	      0.00000000	     11.48488674	      9.60307878	     16.70788896	     51.65878875	     89.95437384	      0.00000000	      0.00000000
      1.32000000	     16.68974902	     -6.20372102	      4.00268782	      0.66424690	      0.93146086	     -1.01389045	      3.47819775	      7.43302482	    -13.27355683	    -23.05135786	     -0.40232209	     -0.51369706	    -10.15830809	      1.77465916	    -25.93592663	      6.98802160	      1.01929066	    -37.98962492	     -0.66304404	     -0.73496956	     14.68263507	     -0.79613580	    -22.81281233	      9.39206748	     -8.87680922	     -8.96477666	    -10.12864303	     -6.72939321	     12.14650790	     89.95437384	      0.00000000	      0.00000000	     11.06530315	      9.33609218	     16.48332903	     50.94710313	     89.95437384	      0.00000000	      0.00000000
      1.33000000	     16.88949099	     -5.80237355	      3.75923902	      0.67520721	      0.93391906	     -1.01242903	      2.32725326	      7.10330236	    -13.35584882	    -22.92796432	     -0.40016847	      0.08069942	     -9.82904850	      1.69007053	    -25.02977280	      6.53262688	      0.79477963	    -40.31739419	     -0.70367127	     -2.23608586	     14.57531635	     -0.72117615	    -23.13860375	      8.87141243	     -8.49250479	     -8.66398747	     -9.98245260	     -6.51124725	     12.34101518	     89.95437384	      0.00000000	      0.00000000	     10.74697699	      9.00584554	     16.28252007	     50.15098957	     89.95437384	      0.00000000	      0.00000000
      1.34000000	     16.90459953	     -5.68073409	      4.20759390	      0.68625751	      0.93611594	     -1.01157967	      1.11688012	      7.12961740	    -13.89009482	    -22.20798096	     -0.38760239	      0.88672215	     -9.09961976	      1.60384244	    -23.62294336	      6.69796297	      0.13609225	    -42.79230287	     -0.74686658	     -4.04099449	     15.27768277	     -0.54768664	    -23.06821959	      8.85499672	     -8.77835059	     -8.27634451	     -9.81064583	     -6.65331138	     12.58801705	     89.95437384	      0.00000000	      0.00000000	     10.34713372	      8.87635462	     15.83015425	     49.01546931	     89.95437384	      0.00000000	      0.00000000
      1.35000000	     17.01744098	     -5.45018216	      4.38137146	      0.69683931	      0.93816685	     -1.01036707	     -0.03551179	      6.98221227	    -14.38612022	    -21.77730993	     -0.38008576	      1.52016521	     -8.25048199	      1.50646953	    -22.39008644	      6.62752930	     -0.22842255	    -45.06496565	     -0.78653203	     -3.77738426	     15.68186923	     -0.48977750	    -23.21632787	      8.60528265	     -8.77162652	     -7.89807768	     -9.60843797	     -6.86803987	     13.01772308	     89.95437384	      0.00000000	      0.00000000	     10.03816696	      8.73522103	     15.45872821	     47.91862645	     89.95437384	      0.00000000	      0.00000000
      1.36000000	     17.15094008	     -5.20782552	      4.49760961	      0.70739065	      0.94013761	     -1.00929853	     -1.18840504	      6.81091543	    -14.76475116	    -21.39143942	     -0.37335105	      2.13556151	     -7.41214680	      1.38166319	    -21.23844257	      6.53157296	     -0.40250520	    -47.03771917	     -0.82096307	     -2.58135507	     15.91916606	     -0.49093562	    -23.39309610	      8.33335978	     -8.66314065	     -7.48498749	     -9.44309184	     -7.02589299	     13.42862552	     89.95437384	      0.00000000	      0.00000000	      9.71213880	      8.47753837	     15.20884929	     46.81733187	     89.95437384	      0.00000000	      0.00000000
